<svg width="980" height="551" xmlns="http://www.w3.org/2000/svg" xmlns:xlink="http://www.w3.org/1999/xlink">
<path fill="#ff595e" d="M 463.85 463.75 Q 463.85 463.75 470.17 457.82 476.49 451.88 487.88 442.80 499.27 433.73 511.40 423.39 523.53 413.05 535.07 402.05 546.60 391.05 556.43 380.14 566.26 369.24 573.47 359.76 580.68 350.29 585.30 341.89 589.92 333.49 592.20 325.92 594.48 318.36 594.47 312.78 594.45 307.19 591.92 302.85 589.38 298.50 584.48 294.08 579.59 289.66 573.31 286.18 567.03 282.70 560.91 280.58 554.78 278.45 549.12 277.39 543.46 276.32 537.83 276.73 532.21 277.13 526.85 279.32 521.50 281.51 516.02 286.04 510.55 290.57 505.24 297.44 499.94 304.32 496.00 311.22 492.07 318.12 489.67 323.78 487.27 329.43 486.08 334.05 484.89 338.67 484.88 341.55 484.87 344.44 487.35 345.99 489.84 347.55 496.51 348.17 503.19 348.79 512.87 347.92 522.56 347.05 532.89 343.95 543.22 340.85 553.86 336.28 564.51 331.70 564.51 331.70 564.51 331.71 564.51 331.71 564.52 331.72 554.45 338.20 544.38 344.68 533.65 347.85 522.93 351.03 512.84 351.90 502.76 352.77 495.24 351.82 487.73 350.87 484.61 348.31 481.49 345.75 481.25 341.73 481.01 337.71 482.30 332.79 483.59 327.88 486.09 322.00 488.59 316.13 492.68 309.00 496.77 301.87 502.39 294.68 508.00 287.49 513.98 282.65 519.96 277.82 525.92 275.49 531.88 273.15 538.03 272.77 544.18 272.39 550.14 273.53 556.10 274.68 562.53 276.94 568.97 279.21 575.62 282.95 582.27 286.69 587.55 291.60 592.83 296.51 595.61 301.73 598.39 306.96 598.35 313.21 598.31 319.47 595.87 327.44 593.43 335.41 588.65 344.06 583.86 352.71 576.55 362.31 569.23 371.91 559.30 382.93 549.36 393.95 537.75 405.02 526.13 416.09 513.95 426.47 501.76 436.86 490.32 445.97 478.88 455.09 471.37 459.43 463.86 463.77 463.86 463.76 Z" data-drauu_index="0"></path><path fill="#ff595e" d="M 600.61 376.54 Q 600.61 376.54 603.00 374.78 605.38 373.02 609.36 371.69 613.34 370.37 619.02 368.23 624.69 366.08 632.94 362.53 641.19 358.98 650.90 354.25 660.61 349.52 670.27 344.16 679.93 338.80 689.27 333.18 698.61 327.55 707.22 322.07 715.83 316.59 723.62 311.39 731.41 306.18 738.30 301.43 745.20 296.67 751.35 292.31 757.50 287.95 762.93 283.98 768.37 280.00 772.97 276.58 777.56 273.15 781.35 270.22 785.13 267.29 788.22 264.80 791.30 262.32 794.15 260.14 797.00 257.97 799.57 256.08 802.14 254.20 804.07 252.74 806.01 251.28 807.35 250.20 808.69 249.13 809.48 248.40 810.27 247.67 808.84 247.55 807.41 247.43 805.67 246.69 803.92 245.94 800.79 244.49 797.66 243.04 791.85 240.54 786.03 238.05 777.58 234.64 769.13 231.22 759.22 227.73 749.31 224.23 738.41 221.40 727.51 218.57 716.34 216.60 705.17 214.63 694.30 213.96 683.42 213.29 673.12 214.07 662.82 214.86 654.26 216.33 645.69 217.81 639.46 219.32 633.24 220.82 629.05 222.10 624.85 223.37 622.41 224.20 619.98 225.03 618.84 225.50 617.71 225.98 617.17 226.29 616.63 226.60 616.40 226.66 616.16 226.73 615.92 226.74 615.68 226.75 615.45 226.70 615.21 226.65 614.99 226.54 614.78 226.44 614.59 226.28 614.40 226.13 614.26 225.93 614.12 225.74 614.03 225.52 613.93 225.29 613.90 225.06 613.86 224.82 613.88 224.58 613.90 224.34 613.98 224.11 614.06 223.88 614.19 223.68 614.32 223.48 614.49 223.31 614.67 223.15 614.88 223.03 615.09 222.91 616.25 223.30 617.41 223.70 622.05 224.17 626.69 224.63 633.55 225.73 640.42 226.82 650.15 229.36 659.88 231.89 671.31 236.71 682.74 241.53 694.61 248.68 706.47 255.84 717.70 264.19 728.92 272.55 738.57 280.60 748.22 288.65 755.90 295.61 763.57 302.57 769.09 308.40 774.61 314.23 778.15 319.11 781.70 324.00 783.68 328.41 785.65 332.82 786.15 337.30 786.64 341.78 784.94 346.65 783.24 351.52 778.17 356.87 773.10 362.22 764.03 367.59 754.95 372.96 729.52 379.05 704.10 385.15 678.85 388.02 653.61 390.90 621.62 391.12 589.64 391.34 548.25 388.75 506.86 386.16 471.69 383.06 436.51 379.97 409.36 376.75 382.21 373.54 356.70 369.50 331.19 365.46 312.46 361.44 293.74 357.41 281.39 353.76 269.03 350.11 261.53 347.15 254.03 344.20 249.62 341.52 245.20 338.84 242.81 335.80 240.42 332.76 240.95 328.61 241.49 324.46 247.11 318.26 252.74 312.05 264.51 303.29 276.27 294.52 293.93 283.40 311.59 272.28 334.24 259.68 356.89 247.08 380.75 235.01 404.62 222.95 426.54 213.82 448.46 204.69 468.11 199.14 487.75 193.59 504.37 192.12 520.99 190.65 534.13 193.46 547.26 196.26 556.55 201.42 565.83 206.59 571.81 212.03 577.79 217.47 581.38 222.68 584.97 227.89 585.41 233.41 585.85 238.93 580.90 244.50 575.95 250.08 562.44 256.26 548.94 262.44 528.86 268.87 508.79 275.30 488.66 280.39 468.53 285.47 454.22 288.47 439.91 291.47 429.29 293.10 418.67 294.73 409.00 294.60 399.33 294.47 399.33 294.47 399.33 294.46 399.33 294.46 399.33 294.45 408.70 292.61 418.06 290.77 428.58 289.17 439.09 287.56 453.32 284.58 467.55 281.59 487.56 276.54 507.57 271.49 527.43 265.14 547.29 258.79 560.21 253.03 573.13 247.27 577.67 242.75 582.22 238.24 581.90 234.07 581.58 229.90 578.33 225.15 575.07 220.41 569.46 215.24 563.85 210.07 555.11 205.11 546.36 200.15 533.83 197.39 521.29 194.64 505.06 196.04 488.82 197.44 469.41 202.91 450.00 208.38 428.21 217.45 406.42 226.52 382.63 238.55 358.83 250.57 336.28 263.12 313.72 275.66 296.19 286.70 278.66 297.73 267.15 306.26 255.65 314.79 250.46 320.14 245.26 325.49 244.54 328.42 243.82 331.35 245.58 333.41 247.33 335.48 251.42 337.98 255.51 340.48 262.84 343.38 270.17 346.27 282.37 349.88 294.58 353.50 313.20 357.50 331.82 361.51 357.25 365.54 382.68 369.57 409.77 372.78 436.86 375.98 471.99 379.07 507.11 382.17 548.36 384.75 589.61 387.34 621.39 387.13 653.16 386.93 678.17 384.09 703.17 381.25 728.07 375.37 752.97 369.49 761.62 364.46 770.26 359.42 774.91 354.72 779.56 350.02 781.12 346.01 782.68 342.00 782.33 338.19 781.98 334.38 780.22 330.35 778.45 326.33 775.08 321.65 771.70 316.97 766.29 311.26 760.88 305.54 753.27 298.63 745.66 291.72 736.10 283.74 726.54 275.75 715.47 267.51 704.40 259.26 692.79 252.24 681.18 245.21 670.02 240.49 658.87 235.76 649.32 233.27 639.78 230.77 632.97 229.68 626.15 228.60 622.37 228.08 618.58 227.57 617.60 227.09 616.63 226.60 616.40 226.66 616.16 226.73 615.92 226.74 615.68 226.75 615.45 226.70 615.21 226.65 614.99 226.54 614.78 226.44 614.59 226.28 614.40 226.13 614.26 225.93 614.12 225.74 614.03 225.52 613.93 225.29 613.90 225.06 613.86 224.82 613.88 224.58 613.90 224.34 613.98 224.11 614.06 223.88 614.19 223.68 614.32 223.48 614.49 223.31 614.67 223.15 614.88 223.03 615.09 222.91 615.63 222.60 616.17 222.29 617.43 221.76 618.69 221.24 621.19 220.39 623.69 219.54 627.99 218.24 632.30 216.93 638.66 215.40 645.01 213.87 653.77 212.37 662.52 210.87 673.10 210.08 683.67 209.29 694.76 209.99 705.86 210.70 717.19 212.69 728.52 214.69 739.58 217.58 750.64 220.46 760.63 223.99 770.63 227.51 779.12 230.94 787.61 234.37 793.48 236.89 799.34 239.41 802.42 240.84 805.50 242.27 807.88 243.24 810.26 244.21 811.42 244.49 812.59 244.77 813.57 245.75 814.55 246.73 813.76 248.67 812.98 250.61 812.09 251.43 811.19 252.24 809.80 253.36 808.41 254.48 806.46 255.95 804.50 257.42 801.96 259.28 799.43 261.15 796.62 263.29 793.81 265.43 790.70 267.94 787.58 270.45 783.77 273.40 779.95 276.36 775.34 279.79 770.73 283.23 765.27 287.22 759.81 291.21 753.64 295.59 747.47 299.97 740.55 304.74 733.63 309.51 725.81 314.74 717.98 319.96 709.33 325.47 700.67 330.98 691.27 336.64 681.87 342.30 672.12 347.71 662.37 353.12 652.57 357.89 642.77 362.66 634.44 366.24 626.10 369.82 620.35 372.00 614.60 374.17 610.57 375.51 606.54 376.84 603.58 376.70 600.62 376.56 600.62 376.55 Z" data-drauu_index="1"></path><path fill="#ff595e" d="M 427.39 495.50 Q 427.39 495.50 429.33 492.45 431.28 489.40 435.01 485.82 438.74 482.24 443.05 478.10 447.36 473.97 451.80 469.59 456.25 465.22 460.23 461.17 464.21 457.11 467.49 453.80 470.76 450.49 473.59 447.58 476.42 444.67 478.84 442.11 481.27 439.55 483.27 437.44 485.27 435.33 486.75 433.74 488.23 432.15 489.28 431.01 490.34 429.87 491.08 429.12 491.82 428.38 492.60 427.55 493.38 426.73 495.32 426.12 497.27 425.51 497.27 425.51 497.27 425.52 497.28 425.52 497.28 425.52 496.40 427.94 495.51 430.35 494.39 431.47 493.27 432.59 492.21 433.73 491.15 434.88 489.66 436.48 488.17 438.08 486.17 440.19 484.17 442.30 481.73 444.88 479.29 447.46 476.45 450.38 473.61 453.31 470.33 456.61 467.06 459.91 463.06 463.99 459.05 468.08 454.59 472.46 450.13 476.85 445.82 480.99 441.51 485.13 437.72 488.76 433.93 492.39 430.67 493.96 427.40 495.52 427.40 495.51 Z" data-drauu_index="2"></path>
</svg>